<svg width="135" height="135" viewBox="0 0 135 135" fill="none" xmlns="http://www.w3.org/2000/svg">
<circle cx="67.5" cy="67.5" r="67.5" fill="url(#paint0_linear_37_3)"/>
<path d="M38 39H43.22C46.46 39 49.01 41.79 48.74 45L46.25 74.88C46.1528 76.0376 46.2971 77.2027 46.6737 78.3016C47.0503 79.4006 47.6511 80.4092 48.438 81.2638C49.2249 82.1184 50.1807 82.8002 51.2449 83.266C52.309 83.7319 53.4583 83.9716 54.62 83.97H86.57C90.89 83.97 94.67 80.43 95 76.14L96.62 53.64C96.98 48.66 93.2 44.61 88.19 44.61H49.46M59 57H95M80.75 99C81.7446 99 82.6984 98.6049 83.4017 97.9017C84.1049 97.1984 84.5 96.2446 84.5 95.25C84.5 94.2554 84.1049 93.3016 83.4017 92.5983C82.6984 91.8951 81.7446 91.5 80.75 91.5C79.7554 91.5 78.8016 91.8951 78.0983 92.5983C77.3951 93.3016 77 94.2554 77 95.25C77 96.2446 77.3951 97.1984 78.0983 97.9017C78.8016 98.6049 79.7554 99 80.75 99ZM56.75 99C57.7446 99 58.6984 98.6049 59.4017 97.9017C60.1049 97.1984 60.5 96.2446 60.5 95.25C60.5 94.2554 60.1049 93.3016 59.4017 92.5983C58.6984 91.8951 57.7446 91.5 56.75 91.5C55.7554 91.5 54.8016 91.8951 54.0983 92.5983C53.3951 93.3016 53 94.2554 53 95.25C53 96.2446 53.3951 97.1984 54.0983 97.9017C54.8016 98.6049 55.7554 99 56.75 99V99Z" stroke="white" stroke-width="4.5" stroke-miterlimit="10" stroke-linecap="round" stroke-linejoin="round"/>
<defs>
<linearGradient id="paint0_linear_37_3" x1="70.8365" y1="-39.3132" x2="187.29" y2="56.8263" gradientUnits="userSpaceOnUse">
<stop stop-color="#FFB800"/>
<stop offset="1" stop-color="#FF2E00"/>
</linearGradient>
</defs>
</svg>
