<svg width="135" height="135" viewBox="0 0 135 135" fill="none" xmlns="http://www.w3.org/2000/svg">
<circle cx="67.5" cy="67.5" r="67.5" fill="url(#paint0_linear_37_4)"/>
<path d="M89.0001 60C89.0001 64.35 87.7101 68.34 85.4901 71.67C83.8634 74.0962 81.7474 76.1556 79.2778 77.7158C76.8083 79.2761 74.0398 80.3028 71.1501 80.73C70.1301 80.91 69.0801 81 68.0001 81C66.9201 81 65.8701 80.91 64.8501 80.73C61.9604 80.3028 59.192 79.2761 56.7224 77.7158C54.2529 76.1556 52.1369 74.0962 50.5101 71.67C48.2071 68.2149 46.9851 64.1523 47.0001 60C47.0001 48.39 56.3901 39 68.0001 39C79.6101 39 89.0001 48.39 89.0001 60Z" stroke="white" stroke-width="4.5" stroke-linecap="round" stroke-linejoin="round"/>
<path d="M95.7501 88.41L90.8001 89.58C89.6901 89.85 88.8201 90.69 88.5801 91.8L87.5301 96.21C87.4013 96.7513 87.1245 97.2462 86.7306 97.6392C86.3367 98.0323 85.8413 98.308 85.2996 98.4356C84.758 98.5633 84.1916 98.5377 83.6636 98.3619C83.1357 98.1861 82.6671 97.8669 82.3101 97.44L68.0001 81L53.6901 97.47C53.3332 97.8969 52.8645 98.2161 52.3366 98.3919C51.8087 98.5677 51.2422 98.5933 50.7006 98.4656C50.159 98.338 49.6635 98.0623 49.2696 97.6692C48.8757 97.2762 48.5989 96.7813 48.4701 96.24L47.4201 91.83C47.2925 91.2904 47.0172 90.797 46.6252 90.4049C46.2331 90.0129 45.7397 89.7376 45.2001 89.61L40.2501 88.44C39.7315 88.3157 39.2552 88.0558 38.8701 87.6869C38.485 87.318 38.2048 86.8533 38.0583 86.3405C37.9118 85.8277 37.9042 85.2852 38.0363 84.7685C38.1684 84.2518 38.4355 83.7795 38.8101 83.4L50.5101 71.7C52.1369 74.1262 54.2529 76.1856 56.7224 77.7458C59.192 79.3061 61.9604 80.3328 64.8501 80.76C65.8701 80.94 66.9201 81.03 68.0001 81.03C69.0801 81.03 70.1301 80.94 71.1501 80.76C77.1201 79.89 82.2501 76.5 85.4901 71.7L97.1901 83.4C98.8401 85.02 98.0301 87.87 95.7501 88.41V88.41ZM69.7401 50.94L71.5101 54.48C71.7501 54.96 72.3801 55.44 72.9501 55.53L76.1601 56.07C78.2001 56.4 78.6801 57.9 77.2101 59.37L74.7201 61.86C74.3001 62.28 74.0601 63.09 74.2101 63.69L74.9301 66.78C75.5001 69.21 74.2101 70.17 72.0501 68.88L69.0501 67.11C68.7454 66.9474 68.4054 66.8624 68.0601 66.8624C67.7148 66.8624 67.3748 66.9474 67.0701 67.11L64.0701 68.88C61.9101 70.14 60.6201 69.21 61.1901 66.78L61.9101 63.69C62.0301 63.12 61.8201 62.28 61.4001 61.86L58.9101 59.37C57.4401 57.9 57.9201 56.43 59.9601 56.07L63.1701 55.53C63.7101 55.44 64.3401 54.96 64.5801 54.48L66.3501 50.94C67.2201 49.02 68.7801 49.02 69.7401 50.94V50.94Z" stroke="white" stroke-width="4.5" stroke-linecap="round" stroke-linejoin="round"/>
<defs>
<linearGradient id="paint0_linear_37_4" x1="70.8365" y1="-39.3132" x2="187.29" y2="56.8263" gradientUnits="userSpaceOnUse">
<stop stop-color="#FFB800"/>
<stop offset="1" stop-color="#FF2E00"/>
</linearGradient>
</defs>
</svg>
